<svg xmlns="http://www.w3.org/2000/svg" viewBox="0 0 157 140"><path d="M78.4 17.7c15-14.5 29.9-21 39.2-15.6 9.3 5.4 11 21.5 6 41.8 20.1 5.8 33.2 15.3 33.2 26.1s-13 20.3-33.1 26.1c5 20.3 3.2 36.4-6.1 41.8-9.4 5.4-24.2-1.2-39.2-15.6-15 14.4-29.9 21-39.2 15.6-9.3-5.4-11-21.5-6-41.8C13 90.3 0 80.8 0 70s13-20.3 33.1-26.1C28.1 23.6 30 7.5 39.2 2c9.3-5.4 24.2 1.2 39.2 15.6zm38.8 80.1l-.6.2c-6.3 1.4-13 2.5-20.2 3.2-4.3 6-8.8 11.5-13.3 16.3a87 87 0 0 0 7.5 6.5c10.6 8.2 19.2 10.7 23.6 8 4.5-2.5 6.7-11.2 4.9-24.4a95 95 0 0 0-2-9.8zm-77.6 0v.5c-.8 3.2-1.4 6.3-1.9 9.3-1.8 13.2.4 21.9 4.9 24.5 4.4 2.6 13 0 23.6-8 2.4-2 5-4.2 7.5-6.6-4.5-4.8-9-10.3-13.3-16.3a159 159 0 0 1-20.8-3.4zm48 4H87a193.2 193.2 0 0 1-17.9 0c3 4 6.1 7.6 9.2 10.9 3-3.3 6.2-7 9.2-10.9zm-9.2-57c-4.9 0-9.6.1-14.3.5A184.3 184.3 0 0 0 49.8 70a183.6 183.6 0 0 0 14.3 24.7 183.7 183.7 0 0 0 28.6 0A184 184 0 0 0 107 70a183.6 183.6 0 0 0-14.3-24.7c-4.7-.4-9.4-.6-14.3-.6zM46.3 78l-.3.7a146 146 0 0 0-4.6 12.6c4.5 1 9.1 1.9 14 2.5A192.2 192.2 0 0 1 46.3 78zm64.2 0v.1a193 193 0 0 1-9.1 15.7 120 120 0 0 0 14-2.5c-1.4-4.3-3-8.8-4.9-13.3zM122 50.3l-.2.6c-1.9 6.2-4.3 12.6-7.3 19.1a159 159 0 0 1 7.5 19.7c3.3-1 6.5-2.1 9.4-3.3 12.4-5 18.8-11.2 18.8-16.4 0-5.2-6.4-11.4-18.8-16.4a95 95 0 0 0-9.4-3.3zm-87 0l-.7.3c-3 .9-6 1.9-8.7 3C13.1 58.6 6.7 64.8 6.7 70c0 5.2 6.4 11.4 18.8 16.4 3 1.2 6 2.3 9.4 3.3 2-6.3 4.4-13 7.5-19.7a159 159 0 0 1-7.5-19.7zm43.5 4.5a14.6 14.6 0 1 1 0 29.2 14.6 14.6 0 0 1 0-29.2zm23-8.6v.1a193 193 0 0 1 9.1 15.7c2-4.5 3.5-9 4.9-13.3-4.5-1-9.1-1.9-14-2.5zm-46 0h-1c-4.5.7-8.8 1.5-13 2.5 1.4 4.3 3 8.8 4.9 13.3a192.2 192.2 0 0 1 9.1-15.8zM90.6 16a95 95 0 0 0-7.5 6.5c4.5 4.8 9 10.3 13.3 16.3a159 159 0 0 1 20.8 3.4 95 95 0 0 0 1.9-9.8c1.8-13.2-.4-21.9-4.9-24.5-4.4-2.6-13 0-23.6 8zm-48-8c-4.5 2.5-6.7 11.2-4.9 24.4a95 95 0 0 0 2 9.8c6.3-1.5 13.3-2.7 20.7-3.4a159 159 0 0 1 13.3-16.3 87 87 0 0 0-7.5-6.5C55.6 7.8 47 5.3 42.6 8zm35.8 19.3l-.2.2c-3 3.3-6 6.8-9 10.7a192.8 192.8 0 0 1 18.4 0c-3-4-6.1-7.6-9.2-10.9z"/></svg>